<svg width="35" height="30" viewBox="0 0 35 30" fill="none" xmlns="http://www.w3.org/2000/svg">
<path d="M24.816 29.744C22.56 29.168 20.88 27.896 19.776 25.928C18.672 23.912 18.12 21.536 18.12 18.8C18.12 14.48 19.512 10.76 22.296 7.64C25.128 4.472 28.416 2.12 32.16 0.583997L34.464 4.328L34.392 5.048C32.52 5.72 30.864 7.16 29.424 9.368C27.984 11.576 27.264 13.88 27.264 16.28C27.264 17.816 27.576 19.088 28.2 20.096C28.824 21.056 29.688 21.584 30.792 21.68L30.576 23.12L24.816 29.744ZM7.248 29.744C4.992 29.168 3.312 27.896 2.208 25.928C1.104 23.912 0.552 21.536 0.552 18.8C0.552 14.48 1.944 10.76 4.728 7.64C7.56 4.472 10.848 2.12 14.592 0.583997L16.896 4.328L16.824 5.048C14.952 5.72 13.296 7.16 11.856 9.368C10.416 11.576 9.696 13.88 9.696 16.28C9.696 17.816 10.008 19.088 10.632 20.096C11.256 21.056 12.12 21.584 13.224 21.68L13.008 23.12L7.248 29.744Z" fill="#332200" fill-opacity="0.4"/>
</svg>
