<svg width="35" height="31" viewBox="0 0 35 31" fill="none" xmlns="http://www.w3.org/2000/svg">
<path d="M27.992 0.871997C30.248 1.448 31.928 2.744 33.032 4.76C34.136 6.728 34.688 9.08 34.688 11.816C34.688 16.136 33.272 19.88 30.44 23.048C27.656 26.168 24.392 28.496 20.648 30.032L18.344 26.288L18.416 25.568C20.288 24.896 21.944 23.456 23.384 21.248C24.824 19.04 25.544 16.736 25.544 14.336C25.544 12.8 25.232 11.552 24.608 10.592C23.984 9.584 23.12 9.032 22.016 8.936L22.232 7.496L27.992 0.871997ZM10.496 0.871997C12.752 1.448 14.432 2.744 15.536 4.76C16.64 6.728 17.192 9.08 17.192 11.816C17.192 16.136 15.776 19.88 12.944 23.048C10.16 26.168 6.896 28.496 3.152 30.032L0.848 26.288L0.92 25.568C2.792 24.896 4.448 23.456 5.888 21.248C7.328 19.04 8.048 16.736 8.048 14.336C8.048 12.8 7.736 11.552 7.112 10.592C6.488 9.584 5.624 9.032 4.52 8.936L4.736 7.496L10.496 0.871997Z" fill="#332200" fill-opacity="0.4"/>
</svg>
