<svg width="40" height="40" viewBox="0 0 40 40" fill="none" xmlns="http://www.w3.org/2000/svg">
<path d="M33.334 6.66602H6.66598C4.83398 6.66602 3.34998 8.16602 3.34998 10L3.33398 30C3.33398 31.834 4.83398 33.334 6.66598 33.334H33.334C35.166 33.334 36.666 31.834 36.666 30V10C36.666 8.16602 35.166 6.66602 33.334 6.66602ZM32.666 13.75L20.884 21.118C20.6182 21.2816 20.3122 21.3684 20 21.3684C19.6878 21.3684 19.3818 21.2816 19.116 21.118L7.33398 13.75C7.1692 13.655 7.02522 13.5278 6.91068 13.376C6.79614 13.2241 6.71336 13.0507 6.66728 12.8662C6.6212 12.6817 6.61278 12.4897 6.64252 12.3019C6.67226 12.114 6.73954 11.934 6.84034 11.7727C6.94116 11.6114 7.07342 11.4721 7.22928 11.3631C7.38512 11.254 7.56132 11.1775 7.7474 11.138C7.93346 11.0986 8.12558 11.097 8.31226 11.1334C8.49896 11.1698 8.6764 11.2435 8.83398 11.35L20 18.334L31.166 11.35C31.3236 11.2435 31.501 11.1698 31.6878 11.1334C31.8744 11.097 32.0664 11.0986 32.2526 11.138C32.4386 11.1775 32.6148 11.254 32.7706 11.3631C32.9266 11.4721 33.0588 11.6114 33.1596 11.7727C33.2604 11.934 33.3278 12.114 33.3574 12.3019C33.3872 12.4897 33.3788 12.6817 33.3326 12.8662C33.2866 13.0507 33.2038 13.2241 33.0892 13.376C32.9748 13.5278 32.8308 13.655 32.666 13.75Z" fill="url(#paint0_linear_246_3576)"/>
<defs>
<linearGradient id="paint0_linear_246_3576" x1="20" y1="6.66602" x2="20" y2="33.334" gradientUnits="userSpaceOnUse">
<stop stop-color="#FFBF00"/>
<stop offset="1" stop-color="#F2A50C"/>
</linearGradient>
</defs>
</svg>
