<svg width="40" height="40" viewBox="0 0 40 40" fill="none" xmlns="http://www.w3.org/2000/svg">
<path d="M20 3.33398C13 3.33398 6.66602 8.69998 6.66602 17C6.66602 22.3 10.75 28.534 18.9 35.716C19.208 35.9818 19.6012 36.128 20.008 36.128C20.4148 36.128 20.808 35.9818 21.116 35.716C29.25 28.534 33.334 22.3 33.334 17C33.334 8.69998 27 3.33398 20 3.33398ZM20 20C18.166 20 16.666 18.5 16.666 16.666C16.666 14.832 18.166 13.332 20 13.332C21.834 13.332 23.334 14.832 23.334 16.666C23.334 18.5 21.834 20 20 20Z" fill="url(#paint0_linear_246_3586)"/>
<defs>
<linearGradient id="paint0_linear_246_3586" x1="20" y1="3.33398" x2="20" y2="36.128" gradientUnits="userSpaceOnUse">
<stop stop-color="#FFBF00"/>
<stop offset="1" stop-color="#F2A50C"/>
</linearGradient>
</defs>
</svg>
