<svg width="40" height="40" viewBox="0 0 40 40" fill="none" xmlns="http://www.w3.org/2000/svg">
<path d="M32.049 25.4341L27.815 24.9501C27.3174 24.8917 26.8132 24.9469 26.34 25.1115C25.8668 25.2761 25.437 25.5457 25.083 25.9001L22.015 28.9661C17.2844 26.5599 13.4393 22.7147 11.033 17.9841L14.115 14.9001C14.833 14.1841 15.183 13.1841 15.065 12.1661L14.583 7.96612C14.4883 7.15294 14.0979 6.40298 13.486 5.859C12.8742 5.31504 12.0837 5.01504 11.265 5.01612H8.38303C6.49903 5.01612 4.93303 6.58412 5.04903 8.46612C5.93303 22.7001 17.315 34.0661 31.533 34.9501C33.415 35.0661 34.983 33.5001 34.983 31.6161V28.7341C34.9872 27.9189 34.6898 27.1311 34.1482 26.5219C33.6066 25.9129 32.859 25.5253 32.049 25.4341Z" fill="url(#paint0_linear_246_3572)"/>
<defs>
<linearGradient id="paint0_linear_246_3572" x1="20.013" y1="5.01612" x2="20.013" y2="34.9561" gradientUnits="userSpaceOnUse">
<stop stop-color="#FFBF00"/>
<stop offset="1" stop-color="#F2A50C"/>
</linearGradient>
</defs>
</svg>
